<?xml version="1.0" standalone="no"?>
<!DOCTYPE svg PUBLIC "-//W3C//DTD SVG 20010904//EN"
 "http://www.w3.org/TR/2001/REC-SVG-20010904/DTD/svg10.dtd">
<svg version="1.0" xmlns="http://www.w3.org/2000/svg"
 width="256.000000pt" height="256.000000pt" viewBox="0 0 256.000000 256.000000"
 preserveAspectRatio="xMidYMid meet">
<metadata>
Created by potrace 1.14, written by Peter Selinger 2001-2017
</metadata>
<g transform="translate(0.000000,256.000000) scale(0.100000,-0.100000)"
fill="#000000" stroke="none">
<path d="M1123 2518 c-376 -48 -711 -268 -912 -600 -22 -37 -46 -89 -52 -115
-17 -71 -19 -219 -3 -293 64 -310 376 -641 799 -849 464 -228 922 -276 1225
-128 93 46 200 153 240 241 33 74 75 208 85 271 4 22 9 54 13 70 8 43 7 281
-1 340 -42 276 -160 510 -356 706 -123 122 -245 205 -401 272 -188 80 -424
112 -637 85z m282 -799 c126 -34 233 -132 275 -252 42 -118 34 -251 -19 -357
l-31 -60 44 -43 43 -44 -43 -43 -44 -44 -44 43 -43 43 -52 -26 c-144 -74 -325
-66 -450 18 -198 134 -244 423 -99 617 37 50 118 113 173 134 78 30 204 36
290 14z"/>
<path d="M1208 1571 c-220 -71 -243 -410 -34 -507 75 -34 177 -29 245 14 3 1
-19 26 -47 55 l-52 53 44 43 44 43 47 -47 c25 -26 49 -44 53 -40 13 13 28 81
27 125 -2 103 -46 185 -127 237 -44 27 -150 40 -200 24z"/>
<path d="M72 1573 c-25 -104 -35 -187 -35 -286 0 -69 11 -206 18 -217 2 -3 6
-26 10 -50 17 -114 109 -328 195 -450 13 -19 27 -37 30 -40 3 -3 20 -25 39
-49 64 -82 169 -175 279 -246 310 -200 698 -251 1051 -140 92 29 240 98 295
137 133 95 213 167 301 271 47 56 60 83 22 44 -244 -243 -799 -242 -1322 3
-86 41 -229 121 -233 132 -2 4 -9 8 -15 8 -22 0 -203 147 -292 236 -199 200
-303 411 -311 633 -2 52 -5 96 -8 98 -2 2 -13 -35 -24 -84z"/>
<path d="M2235 239 c-2 -8 -6 -39 -7 -69 -3 -45 -6 -55 -22 -58 -11 -3 -25 4
-32 13 -8 10 -20 15 -29 11 -13 -4 -13 -9 -3 -25 27 -44 99 -43 115 2 12 37
10 117 -4 129 -9 7 -14 7 -18 -3z"/>
<path d="M2329 232 c-25 -17 -25 -58 0 -72 11 -5 35 -10 55 -10 41 0 56 -18
32 -36 -18 -13 -32 -11 -73 9 -26 12 -38 5 -30 -17 13 -34 118 -37 139 -4 11
18 10 56 -3 63 -5 4 -31 10 -56 13 -53 8 -67 26 -27 36 17 5 35 1 50 -9 27
-17 46 -12 38 9 -13 33 -89 44 -125 18z"/>
</g>
</svg>
